# xmcd CD database file
#
# Track frame offsets:
#	150
#	16721
#	32462
#	47723
#	58522
#	71221
#	88890
#	103541
#	112700
#	127507
#	143384
#	157121
#	172848
#	186429
#	203632
#	219289
#	235850
#	253931
#	269060
#	287103
#	299172
#	315831
#
# Disc length: 4426 seconds
#
# Revision: 0
# Processed by: cddbd v1.5.2PL0 Copyright (c) Steve Scherf et al.
# Submitted via: CDex 1.51
#
DISCID=36114816
DTITLE=Various Artist - Country Classics
DYEAR=1990
DGENRE=Country
TTITLE0="Sugar Daddy" - Bellamy Brothers
TTITLE1="My Maria" - Brooks and Dunn
TTITLE2="Third Rate Romance" - Sammy Kershaw
TTITLE3="Today I Started Loving You Again" - Merle Haggard
TTITLE4="When Did You Stop Loving Me"- George Strait
TTITLE5="Leaving Him Out of This"- Steve Warner
TTITLE6="Corn Don't Grow" - Waylon Jennings
TTITLE7="Walking After Midnight" - Patsy Cline
TTITLE8="The Tall Grass Grows" - George Jones
TTITLE9="Should Have Been A Cowboy" - Toby Keith
TTITLE10="Time Marches on" - Tracy Lawrence
TTITLE11="Why Not Me" - The Judds
TTITLE12="Indian Outlaw" - Tim McGraw
TTITLE13="For The Good Times" - Ray Price
TTITLE14="I Wouldn't Have Missed it for the World" - Ronnie Milsap
TTITLE15="Step by Step" - Eddie Rabbit
TTITLE16="Feed Jake" - Pirates of the Mississippi
TTITLE17="The Box" - Randy Travis
TTITLE18="Someone For Me" - Travis Tritt
TTITLE19="O.D. in Denver" - Hank Williams Jr.
TTITLE20="When You Say Nothing at All" - Keith Whitley
TTITLE21="A Town This Size" - John Prine
EXTD=YEAR: 1990
EXTT0=
EXTT1=
EXTT2=
EXTT3=
EXTT4=
EXTT5=
EXTT6=
EXTT7=
EXTT8=
EXTT9=
EXTT10=
EXTT11=
EXTT12=
EXTT13=
EXTT14=
EXTT15=
EXTT16=
EXTT17=
EXTT18=
EXTT19=
EXTT20=
EXTT21=
PLAYORDER=
